<svg xmlns="http://www.w3.org/2000/svg" width="20" height="20" viewBox="0 0 20 20" fill="none">
  <path fill-rule="evenodd" clip-rule="evenodd" d="M5.34995 4.02505C5.17223 3.85945 4.93717 3.7693 4.69429 3.77358C4.45142 3.77787 4.21969 3.87626 4.04792 4.04803C3.87615 4.21979 3.77776 4.45152 3.77348 4.6944C3.76919 4.93728 3.85935 5.17233 4.02495 5.35005L8.67495 10.0001L4.02495 14.6501C3.93284 14.7359 3.85896 14.8394 3.80772 14.9544C3.75648 15.0694 3.72893 15.1935 3.72671 15.3194C3.72449 15.4453 3.74764 15.5703 3.79479 15.687C3.84195 15.8038 3.91213 15.9098 4.00115 15.9988C4.09017 16.0879 4.19622 16.1581 4.31295 16.2052C4.42969 16.2524 4.55472 16.2755 4.6806 16.2733C4.80648 16.2711 4.93062 16.2435 5.04562 16.1923C5.16062 16.141 5.26412 16.0672 5.34995 15.9751L9.99995 11.3251L14.6499 15.9751C14.7358 16.0672 14.8393 16.141 14.9543 16.1923C15.0693 16.2435 15.1934 16.2711 15.3193 16.2733C15.4452 16.2755 15.5702 16.2524 15.6869 16.2052C15.8037 16.1581 15.9097 16.0879 15.9987 15.9988C16.0878 15.9098 16.158 15.8038 16.2051 15.687C16.2523 15.5703 16.2754 15.4453 16.2732 15.3194C16.271 15.1935 16.2434 15.0694 16.1922 14.9544C16.1409 14.8394 16.0671 14.7359 15.9749 14.6501L11.3249 10.0001L15.9749 5.35005C16.1405 5.17233 16.2307 4.93728 16.2264 4.6944C16.2221 4.45152 16.1237 4.21979 15.952 4.04803C15.7802 3.87626 15.5485 3.77787 15.3056 3.77358C15.0627 3.7693 14.8277 3.85945 14.6499 4.02505L9.99995 8.67505L5.34995 4.02505Z" fill="#111111"/>
</svg>