<svg xmlns="http://www.w3.org/2000/svg" width="20" height="20" viewBox="0 0 20 20" fill="none">
  <path d="M1.66675 4.99935C1.66675 4.77834 1.75455 4.56637 1.91083 4.41009C2.06711 4.25381 2.27907 4.16602 2.50008 4.16602H17.5001C17.7211 4.16602 17.9331 4.25381 18.0893 4.41009C18.2456 4.56637 18.3334 4.77834 18.3334 4.99935C18.3334 5.22036 18.2456 5.43232 18.0893 5.5886C17.9331 5.74488 17.7211 5.83268 17.5001 5.83268H2.50008C2.27907 5.83268 2.06711 5.74488 1.91083 5.5886C1.75455 5.43232 1.66675 5.22036 1.66675 4.99935ZM1.66675 10.026C1.66675 9.805 1.75455 9.59304 1.91083 9.43676C2.06711 9.28048 2.27907 9.19268 2.50008 9.19268H17.5001C17.7211 9.19268 17.9331 9.28048 18.0893 9.43676C18.2456 9.59304 18.3334 9.805 18.3334 10.026C18.3334 10.247 18.2456 10.459 18.0893 10.6153C17.9331 10.7716 17.7211 10.8593 17.5001 10.8593H2.50008C2.27907 10.8593 2.06711 10.7716 1.91083 10.6153C1.75455 10.459 1.66675 10.247 1.66675 10.026ZM2.50008 14.2193C2.27907 14.2193 2.06711 14.3071 1.91083 14.4634C1.75455 14.6197 1.66675 14.8317 1.66675 15.0527C1.66675 15.2737 1.75455 15.4857 1.91083 15.6419C2.06711 15.7982 2.27907 15.886 2.50008 15.886H17.5001C17.7211 15.886 17.9331 15.7982 18.0893 15.6419C18.2456 15.4857 18.3334 15.2737 18.3334 15.0527C18.3334 14.8317 18.2456 14.6197 18.0893 14.4634C17.9331 14.3071 17.7211 14.2193 17.5001 14.2193H2.50008Z" fill="#111111"/>
</svg>